<svg width="15" height="11" viewBox="0 0 15 11" fill="none" xmlns="http://www.w3.org/2000/svg">
<path d="M8.69233 5.05022C8.78509 5.11813 8.83147 5.19624 8.83147 5.28452C8.83147 5.37281 8.78509 5.45091 8.69233 5.51883L2.2085 10.266C2.11575 10.334 2.00907 10.3679 1.88849 10.3679C1.7679 10.3679 1.66123 10.334 1.56847 10.266L0.87278 9.75669C0.780022 9.68878 0.733643 9.61067 0.733643 9.52239C0.733643 9.4341 0.780022 9.35599 0.87278 9.28808L6.3409 5.28452L0.87278 1.28097C0.780022 1.21305 0.733643 1.13495 0.733643 1.04666C0.733643 0.958374 0.780022 0.880273 0.87278 0.812359L1.56847 0.303C1.66123 0.235085 1.7679 0.201128 1.88849 0.201128C2.00907 0.201128 2.11575 0.235085 2.2085 0.303L8.69233 5.05022ZM14.0352 5.05022C14.128 5.11813 14.1744 5.19624 14.1744 5.28452C14.1744 5.37281 14.128 5.45091 14.0352 5.51883L7.5514 10.266C7.45864 10.334 7.35197 10.3679 7.23138 10.3679C7.1108 10.3679 7.00412 10.334 6.91136 10.266L6.21567 9.75669C6.12292 9.68878 6.07654 9.61067 6.07654 9.52239C6.07654 9.4341 6.12292 9.35599 6.21567 9.28808L11.6838 5.28452L6.21567 1.28097C6.12292 1.21305 6.07654 1.13495 6.07654 1.04666C6.07654 0.958374 6.12292 0.880273 6.21567 0.812359L6.91136 0.303C7.00412 0.235085 7.1108 0.201128 7.23138 0.201128C7.35197 0.201128 7.45864 0.235085 7.5514 0.303L14.0352 5.05022Z" fill="black"/>
</svg>
