<svg width="20" height="16" viewBox="0 0 20 16" fill="none" xmlns="http://www.w3.org/2000/svg">
<path d="M11.9329 10.0993C11.4611 10.4139 10.913 10.5802 10.3479 10.5802C9.78288 10.5802 9.23482 10.4139 8.76298 10.0993L0.99151 4.91818C0.948393 4.88944 0.906388 4.85947 0.865234 4.82865V13.3185C0.865234 14.2919 1.65515 15.0644 2.61112 15.0644H18.0847C19.0581 15.0644 19.8306 14.2745 19.8306 13.3185V4.82861C19.7893 4.85951 19.7473 4.88955 19.704 4.91833L11.9329 10.0993Z" fill="white"/>
<path d="M1.60792 3.9933L9.37939 9.17447C9.67357 9.37061 10.0107 9.46866 10.3479 9.46866C10.6851 9.46866 11.0223 9.37057 11.3164 9.17447L19.0879 3.9933C19.553 3.68344 19.8306 3.16486 19.8306 2.60516C19.8306 1.64278 19.0477 0.859863 18.0853 0.859863H2.61053C1.64819 0.8599 0.865234 1.64281 0.865234 2.60608C0.865234 3.16486 1.1429 3.68344 1.60792 3.9933Z" fill="white"/>
</svg>
