<svg width="96" height="31" viewBox="0 0 96 31" fill="none" xmlns="http://www.w3.org/2000/svg">
<path fill-rule="evenodd" clip-rule="evenodd" d="M92.0253 0.962891H3.50399C2.64611 0.966956 1.82454 1.30955 1.21792 1.91616C0.611306 2.52278 0.268714 3.34436 0.264648 4.20223L0.264648 27.4729C0.26669 28.3314 0.608632 29.1542 1.21568 29.7612C1.82274 30.3683 2.64549 30.7102 3.50399 30.7122H92.0253C92.8838 30.7102 93.7066 30.3683 94.3136 29.7612C94.9207 29.1542 95.2626 28.3314 95.2646 27.4729V4.20223C95.2606 3.34436 94.918 2.52278 94.3114 1.91616C93.7048 1.30955 92.8832 0.966956 92.0253 0.962891Z" fill="#1877F2"/>
<path d="M40.4663 17.4621L42.8861 17.2843C42.9109 17.6504 43.0222 18.0055 43.2109 18.3202C43.3314 18.5058 43.4981 18.6569 43.6946 18.7585C43.8912 18.8602 44.1108 18.909 44.3319 18.9001C44.485 18.9114 44.6388 18.8912 44.7837 18.8407C44.9287 18.7901 45.0617 18.7104 45.1746 18.6063C45.2672 18.5172 45.3409 18.4103 45.3913 18.2921C45.4418 18.1739 45.468 18.0468 45.4683 17.9182C45.4682 17.7945 45.4436 17.672 45.3958 17.5579C45.348 17.4438 45.2781 17.3403 45.19 17.2533C44.8085 16.9654 44.3628 16.7744 43.8912 16.6967C43.008 16.5233 42.1849 16.1237 41.5023 15.537C41.2609 15.2954 41.0718 15.0066 40.9467 14.6888C40.8217 14.3709 40.7634 14.0307 40.7756 13.6893C40.7739 13.2008 40.902 12.7205 41.1466 12.2977C41.4048 11.8508 41.7895 11.4903 42.2522 11.2617C42.8934 10.9867 43.5884 10.8598 44.2855 10.8906C45.144 10.8315 45.9965 11.0719 46.6976 11.571C46.9978 11.851 47.2392 12.188 47.4078 12.5623C47.5763 12.9366 47.6687 13.3408 47.6794 13.7512L45.2828 13.9135C45.2575 13.5608 45.1162 13.2264 44.8808 12.9626C44.6494 12.7576 44.3467 12.6521 44.0381 12.6688C43.7945 12.6527 43.5539 12.7301 43.3655 12.8853C43.2936 12.9541 43.2366 13.0369 43.198 13.1287C43.1594 13.2205 43.1401 13.3192 43.1413 13.4187C43.142 13.4962 43.1589 13.5726 43.1908 13.6432C43.2228 13.7137 43.2691 13.7768 43.3268 13.8285C43.575 14.0181 43.8679 14.1406 44.1772 14.1841C45.008 14.3594 45.8115 14.6454 46.5662 15.0345C47.0122 15.2779 47.3775 15.6459 47.6176 16.0937C47.8415 16.5313 47.9556 17.0169 47.95 17.5085C47.9557 18.1044 47.8037 18.6912 47.5094 19.2093C47.2264 19.7171 46.7984 20.1289 46.2801 20.3922C45.6599 20.6752 44.9823 20.8102 44.3009 20.7865C42.8939 20.7865 41.9198 20.4772 41.3863 19.851C40.825 19.1777 40.5016 18.338 40.4663 17.4621ZM49.0788 11.053H51.63V14.3928H54.3823V11.053H56.9413V20.6318H54.3823V16.7663H51.5991V20.6318H49.0479V11.053H49.0788ZM63.7679 19.047H60.8533L60.4358 20.6318H57.8304L60.9229 11.053H63.7138L66.8062 20.6318H64.1545L63.737 19.047H63.7679ZM63.2345 16.975L62.3299 13.5347L61.4254 16.975H63.2345ZM67.6953 20.6318V11.053H71.9474C72.5567 11.0283 73.1657 11.1067 73.7488 11.2849C74.1762 11.452 74.5336 11.7603 74.7616 12.1585C75.0262 12.6298 75.1572 13.1645 75.1404 13.7048C75.1515 14.1801 75.0509 14.6515 74.8466 15.0809C74.6703 15.454 74.4047 15.778 74.0735 16.0241C73.7991 16.2019 73.4955 16.3302 73.1767 16.4029C73.4168 16.4831 73.6416 16.6033 73.8416 16.7586C73.9935 16.9109 74.1283 17.0794 74.2436 17.2611C74.3797 17.4485 74.4987 17.6477 74.5992 17.8564L75.8439 20.6241H72.937L71.5763 17.7018C71.4738 17.4162 71.3162 17.1535 71.1125 16.9286C70.9358 16.7849 70.714 16.7083 70.4862 16.7122H70.262V20.5777L67.6953 20.6318ZM70.2543 14.9417H71.3289C71.5595 14.9202 71.7873 14.8762 72.0093 14.8103C72.0945 14.7906 72.1748 14.7537 72.2453 14.7019C72.3158 14.65 72.3749 14.5843 72.419 14.5088C72.528 14.3438 72.5845 14.1498 72.5814 13.9522C72.5902 13.8224 72.5721 13.6923 72.5282 13.5699C72.4843 13.4475 72.4155 13.3355 72.3263 13.2409C72.0515 13.0422 71.7121 12.9539 71.3753 12.9935H70.2234V14.9417H70.2543ZM76.6248 11.0762H83.4513V13.1172H79.1219V14.6634H83.0802V16.6117H79.1219V18.4981H83.5132V20.6705H76.5552V11.053L76.6248 11.0762Z" fill="white"/>
<path d="M31.6988 0.962891V30.7122H29.8511V0.962891H31.6988Z" fill="#166BDA"/>
<path d="M24.5639 15.4577C24.5687 13.6567 24.0569 11.892 23.0892 10.3731C22.1215 8.85409 20.7385 7.6445 19.1041 6.88773C17.4698 6.13095 15.6527 5.85875 13.8684 6.1034C12.084 6.34804 10.4073 7.09927 9.03691 8.268C7.66658 9.43674 6.66015 10.9739 6.13698 12.6973C5.61382 14.4207 5.59586 16.258 6.08524 17.9913C6.57461 19.7245 7.5508 21.2811 8.89803 22.4764C10.2453 23.6717 11.907 24.4556 13.6862 24.7351V18.1713H11.2819V15.4577H13.6862V13.3858C13.6862 11.0278 15.0856 9.72123 17.2348 9.72123C17.9372 9.73133 18.6376 9.79595 19.33 9.91451V12.2338H18.1471C17.9439 12.2078 17.7374 12.2276 17.5428 12.2915C17.3481 12.3555 17.1702 12.4621 17.0221 12.6036C16.8739 12.7451 16.7592 12.918 16.6863 13.1094C16.6134 13.3009 16.5843 13.5063 16.6009 13.7105V15.4732H19.2217L18.8197 18.1636H16.6009V24.7428C18.8177 24.4029 20.8395 23.2804 22.3002 21.5786C23.7609 19.8768 24.564 17.7082 24.5639 15.4655V15.4577Z" fill="white"/>
</svg>
