<svg width="38" height="22" viewBox="0 0 38 22" fill="none" xmlns="http://www.w3.org/2000/svg">
<path d="M37.0225 1.83696C33.0851 6.75687 36.6369 12.533 29.3284 18.4379C28.1076 19.4871 26.6027 20.1502 25.0046 20.3429C23.4064 20.5357 21.7871 20.2495 20.3518 19.5206C20.2235 19.4466 20.1255 19.3296 20.075 19.1904C20.0245 19.0511 20.0248 18.8985 20.0759 18.7595C21.4073 15.3296 23.2311 12.1119 25.4899 9.20763C25.5847 9.09666 25.6333 8.95362 25.6259 8.80788C25.6185 8.66214 25.5555 8.52478 25.45 8.42402C25.3444 8.32326 25.2043 8.26675 25.0584 8.2661C24.9124 8.26544 24.7718 8.3207 24.6654 8.42052C21.4307 11.1085 19.1042 15.2476 18.2886 16.8345C18.254 16.9027 18.2017 16.9604 18.1372 17.0015C18.0727 17.0425 17.9984 17.0656 17.922 17.0681C17.8456 17.0706 17.7699 17.0526 17.7028 17.0158C17.6358 16.9791 17.5798 16.925 17.5408 16.8593C17.5056 16.8065 17.4748 16.751 17.4488 16.6931C16.669 15.365 16.2702 13.8477 16.2964 12.3079V12.3015C16.3211 10.8813 16.656 9.48371 17.2777 8.20656C17.8993 6.92941 18.7927 5.80361 19.8951 4.90802C26.2535 -0.203443 34.2731 0.63314 36.7929 1.0638C36.8721 1.0833 36.9448 1.12317 37.0038 1.17945C37.0628 1.23572 37.106 1.30645 37.1292 1.3846C37.1524 1.46276 37.1548 1.54563 37.1361 1.62498C37.1174 1.70433 37.0782 1.77741 37.0225 1.83696Z" fill="#9DD05C"/>
<path d="M16.2315 16.7222C16.1595 17.2008 16.0191 17.6667 15.8148 18.1055C15.7842 18.1696 15.7383 18.2253 15.6811 18.2675C15.6239 18.3097 15.5572 18.3372 15.4869 18.3475C15.4166 18.3578 15.3448 18.3507 15.2779 18.3268C15.211 18.3028 15.151 18.2628 15.1032 18.2101C13.4055 16.3047 11.3916 14.7068 9.15007 13.4869C9.03519 13.4254 8.90174 13.4084 8.77512 13.439C8.6485 13.4695 8.53753 13.5456 8.46335 13.6527C8.38917 13.7598 8.35695 13.8904 8.37282 14.0197C8.38869 14.149 8.45155 14.2679 8.54943 14.3539C10.4407 15.9898 12.1675 17.8067 13.7053 19.7787C13.7439 19.8307 13.7708 19.8906 13.784 19.954C13.7973 20.0175 13.7966 20.0831 13.7821 20.1463C13.7676 20.2094 13.7395 20.2687 13.6999 20.32C13.6602 20.3713 13.6099 20.4134 13.5524 20.4434C12.8515 20.7892 12.0868 20.9868 11.3061 21.0238C10.5254 21.0608 9.74544 20.9364 9.01497 20.6584C3.08469 18.5114 4.09188 14.0894 0.52991 11.8308C0.480438 11.8057 0.438429 11.768 0.408079 11.7215C0.377729 11.6751 0.360101 11.6215 0.356955 11.5661C0.35381 11.5107 0.365257 11.4554 0.390153 11.4058C0.415049 11.3562 0.452523 11.314 0.498831 11.2835C2.00709 10.4653 6.92447 8.1959 12.0683 10.053C13.269 10.4893 14.3141 11.2704 15.0727 12.2983V12.3046C15.0471 13.8445 15.4461 15.3617 16.2258 16.6898L16.2315 16.7222Z" fill="#9DD05C"/>
</svg>
