<svg width="16" height="12" viewBox="0 0 16 12" fill="none" xmlns="http://www.w3.org/2000/svg">
<path d="M5.53169 1.31053C5.62417 1.21805 5.73977 1.17181 5.87849 1.17181C6.01721 1.17181 6.13744 1.22268 6.23917 1.3244C6.34089 1.42613 6.39176 1.54636 6.39176 1.68508C6.39176 1.8238 6.34552 1.9394 6.25304 2.03188L2.61857 5.66635H14.604C14.7335 5.66635 14.8491 5.71259 14.9508 5.80507C15.0525 5.89755 15.1034 6.01315 15.1034 6.15187C15.1034 6.29059 15.0525 6.41081 14.9508 6.51254C14.8491 6.61427 14.7335 6.66513 14.604 6.66513H2.61857L6.25304 10.2996C6.34552 10.3921 6.39176 10.5077 6.39176 10.6464C6.39176 10.7851 6.34089 10.9053 6.23917 11.0071C6.13744 11.1088 6.01721 11.1597 5.87849 11.1597C5.73977 11.1597 5.62417 11.1134 5.53169 11.0209L1.03716 6.52641C0.944678 6.43393 0.898438 6.31371 0.898438 6.16574C0.898438 6.01777 0.944678 5.89755 1.03716 5.80507L5.53169 1.31053Z" fill="white" stroke="white" stroke-width="0.5"/>
</svg>
