<svg width="32" height="22" viewBox="0 0 17 22" fill="none" xmlns="http://www.w3.org/2000/svg">
<path d="M8.34766 0.38623C4.10067 0.38623 0.645508 3.84139 0.645508 8.08834C0.645508 13.3589 7.53818 21.0965 7.83164 21.4233C8.10728 21.7303 8.58853 21.7297 8.86368 21.4233C9.15714 21.0965 16.0498 13.3589 16.0498 8.08834C16.0497 3.84139 12.5946 0.38623 8.34766 0.38623ZM8.34766 11.9635C6.21089 11.9635 4.47255 10.2251 4.47255 8.08834C4.47255 5.95157 6.21093 4.21323 8.34766 4.21323C10.4844 4.21323 12.2227 5.95161 12.2227 8.08838C12.2227 10.2251 10.4844 11.9635 8.34766 11.9635Z" fill="white"/>
</svg>
