<svg width="17" height="17" viewBox="0 0 17 17" fill="none" xmlns="http://www.w3.org/2000/svg">
<g clip-path="url(#clip0_1_846)">
<path d="M3.83802 14.9693H9.27979V15.413H3.83802V14.9693ZM10.6994 14.9693H11.1726V15.413H10.6994V14.9693ZM7.77148 4.58855L7.47573 4.91388L6.17443 3.64216V6.65879H5.73081V3.64216L4.45909 4.91388L4.13377 4.58855L5.96741 2.78449L7.77148 4.58855ZM5.73081 8.07839H6.17443V8.55159H5.73081V8.07839ZM7.8602 6.1856H11.6458V6.62922H7.8602V6.1856ZM9.04319 4.2928H11.6458V4.73643H9.04319V4.2928ZM13.302 5.2392H15.668V16.5959H6.91381V16.1523H14.899L11.4979 12.7512L11.8232 12.4259L15.2243 15.827V5.949L9.93044 10.5627L11.35 11.9527L11.0247 12.278L9.60512 10.8584L8.0968 12.1597C7.6236 11.7654 7.11097 11.3316 6.55891 10.8584L1.29458 16.1523H6.20401V16.5959H0.525635V9.97118H0.969258V15.827L6.23358 10.5923C6.0167 10.4148 5.47942 9.95146 4.62175 9.20223C3.76408 8.453 2.95077 7.74321 2.18183 7.07284C1.41288 6.40248 1.00869 6.05744 0.969258 6.03772V9.26138H0.525635V5.2392H2.89162V1.45362H9.04319V1.89724H3.33525V7.54604C4.59711 8.63045 6.18429 9.97118 8.0968 11.5682L12.8584 7.42774V1.89724H9.75299V1.45362H13.302V5.2392ZM1.26501 5.68282C1.60019 5.99829 2.14239 6.4912 2.89162 7.16157V5.68282H1.26501ZM14.8399 5.68282H13.302V7.04327L14.8399 5.68282ZM9.75299 14.9693H10.2262V15.413H9.75299V14.9693ZM11.6458 14.9693H12.119V15.413H11.6458V14.9693ZM14.2779 7.84179H14.7216V13.2836H14.2779V7.84179ZM5.73081 7.13199H6.17443V7.60519H5.73081V7.13199ZM7.8602 7.13199H11.6458V7.57561H7.8602V7.13199ZM7.8602 5.2392H11.6458V5.68282H7.8602V5.2392ZM7.8602 3.34641H11.6458V3.79003H7.8602V3.34641ZM11.1726 2.40001H11.6458V2.84364H11.1726V2.40001ZM10.2262 2.40001H10.6994V2.84364H10.2262V2.40001ZM9.27979 2.40001H9.75299V2.84364H9.27979V2.40001Z" fill="#79B900"/>
</g>
<defs>
<clipPath id="clip0_1_846">
<rect width="16" height="16" fill="white" transform="matrix(1 0 0 -1 0.0966797 16.8916)"/>
</clipPath>
</defs>
</svg>
