<svg width="17" height="17" viewBox="0 0 17 17" fill="none" xmlns="http://www.w3.org/2000/svg">
<g clip-path="url(#clip0_1_842)">
<path d="M12.5033 10.8288L14.2482 12.6033C14.5834 12.9188 14.751 13.2786 14.751 13.6828C14.751 14.087 14.5834 14.4567 14.2482 14.7919C14.1299 14.9102 13.9919 15.0482 13.8342 15.2059C13.5581 15.4622 13.3708 15.6594 13.2722 15.7974C12.7793 16.3298 12.1681 16.5959 11.4386 16.5959C11.3795 16.5959 11.3104 16.5959 11.2316 16.5959C10.4035 16.5368 9.46695 16.2608 8.42197 15.7679C6.48975 14.8215 4.81384 13.5103 3.39424 11.8344C2.2704 10.4937 1.46202 9.13322 0.969105 7.75306C0.633923 6.86582 0.495907 6.07716 0.555057 5.38707C0.59449 4.81529 0.821231 4.32238 1.23528 3.90833L2.32955 2.81406C2.66473 2.4986 3.02949 2.34086 3.42382 2.34086C3.81815 2.34086 4.17305 2.4986 4.48851 2.81406C4.64625 2.95208 4.84341 3.14924 5.08001 3.40556C5.15888 3.46471 5.26732 3.56329 5.40533 3.70131L6.263 4.55898C6.59819 4.89416 6.76578 5.26385 6.76578 5.66804C6.76578 6.07223 6.59819 6.44191 6.263 6.77709C6.24329 6.81653 6.19893 6.86582 6.12992 6.92497C6.06091 6.98412 6.01655 7.02355 5.99683 7.04327C5.66165 7.39817 5.41519 7.64462 5.25746 7.78264C5.45463 8.19669 5.74052 8.65017 6.11513 9.14308C6.92351 10.1486 7.8009 10.9471 8.74729 11.5386C8.80644 11.5781 8.91488 11.6372 9.07262 11.7161C9.09233 11.7161 9.11205 11.726 9.13177 11.7457L9.30922 11.8344L10.3148 10.8288C10.6499 10.4937 11.0196 10.3261 11.4238 10.3261C11.828 10.3261 12.1878 10.4937 12.5033 10.8288ZM13.6271 14.2004C13.9623 13.8652 13.9623 13.53 13.6271 13.1948L11.8822 11.4499L11.8527 11.4203C11.7146 11.2626 11.5668 11.1837 11.409 11.1837C11.2513 11.1837 11.0936 11.2725 10.9358 11.4499L9.84156 12.5442C9.68383 12.6822 9.51624 12.7512 9.33879 12.7512C9.24021 12.7512 9.14163 12.7216 9.04304 12.6625C9.02333 12.6625 9.00854 12.6625 8.99868 12.6625C8.98882 12.6625 8.98389 12.6625 8.98389 12.6625C8.92474 12.6231 8.82616 12.5639 8.68814 12.485C8.51069 12.3865 8.37268 12.3175 8.2741 12.278C7.26855 11.6274 6.32215 10.7598 5.43491 9.67543C4.96171 9.08393 4.61667 8.52201 4.39979 7.98966C4.39979 7.98966 4.39979 7.9798 4.39979 7.96009C4.30121 7.68406 4.36036 7.44746 4.57724 7.25029V7.22072C4.79412 7.02355 5.06029 6.76723 5.37576 6.45177C5.37576 6.45177 5.46448 6.36304 5.64193 6.1856C5.97711 5.85041 5.97711 5.51523 5.64193 5.18005L4.78426 4.32238C4.74483 4.28295 4.69061 4.22873 4.6216 4.15972C4.55259 4.09071 4.50823 4.03649 4.48851 3.99706C4.25191 3.76046 4.05475 3.57315 3.89702 3.43513V3.40556C3.73928 3.26754 3.58155 3.19853 3.42382 3.19853C3.26609 3.19853 3.10835 3.26754 2.95062 3.40556L1.85635 4.49983C1.60004 4.77586 1.45216 5.09133 1.41273 5.44622C1.37329 6.01801 1.49159 6.68837 1.76763 7.45732C2.24082 8.73889 3.00977 10.0205 4.07447 11.302C5.39548 12.8794 6.96294 14.1117 8.77687 14.9989C9.72326 15.4524 10.5612 15.6988 11.2907 15.7383C11.3104 15.7383 11.3597 15.7383 11.4386 15.7383C11.9118 15.7383 12.3061 15.5707 12.6216 15.2355C12.7793 15.0581 12.9864 14.8412 13.2427 14.5849C13.4398 14.3877 13.568 14.2595 13.6271 14.2004ZM8.71772 5.06175C8.59942 5.04203 8.50577 4.98288 8.43676 4.8843C8.36775 4.78572 8.3431 4.67728 8.36282 4.55898C8.38254 4.44068 8.44169 4.34702 8.54027 4.27802C8.63885 4.20901 8.74729 4.18436 8.86559 4.20408C9.89085 4.38153 10.7781 4.84487 11.5273 5.5941C12.2766 6.34333 12.7399 7.23057 12.9173 8.25584C12.9371 8.37414 12.9124 8.48258 12.8434 8.58116C12.7744 8.67974 12.6808 8.73889 12.5625 8.75861C12.523 8.75861 12.4934 8.75861 12.4737 8.75861C12.2371 8.75861 12.0991 8.64031 12.0597 8.40371C11.9217 7.5559 11.5372 6.81653 10.9063 6.1856C10.295 5.57438 9.56553 5.19977 8.71772 5.06175ZM15.6382 8.13754C15.658 8.25584 15.6333 8.36428 15.5643 8.46286C15.4953 8.56144 15.4115 8.61073 15.3129 8.61073C15.2735 8.63045 15.2439 8.64031 15.2242 8.64031C14.9876 8.64031 14.8496 8.52201 14.8101 8.28541C14.5538 6.76723 13.8736 5.45608 12.7695 4.35195C11.6653 3.24783 10.3542 2.5676 8.83602 2.31129C8.71772 2.29157 8.62407 2.23242 8.55506 2.13384C8.48605 2.03526 8.4614 1.92682 8.48112 1.80852C8.50084 1.69022 8.55999 1.59656 8.65857 1.52756C8.75715 1.45855 8.86559 1.4339 8.98389 1.45362C10.6795 1.74937 12.1435 2.51338 13.3758 3.74567C14.608 4.97796 15.3622 6.44191 15.6382 8.13754Z" fill="#79B900"/>
</g>
<defs>
<clipPath id="clip0_1_842">
<rect width="16" height="16" fill="white" transform="matrix(1 0 0 -1 0.0966797 16.8916)"/>
</clipPath>
</defs>
</svg>
