<svg width="19" height="19" viewBox="0 0 19 19" fill="none" xmlns="http://www.w3.org/2000/svg">
<path d="M17.9627 14.0295L15.4199 11.4868C14.5118 10.5786 12.968 10.9419 12.6047 12.1225C12.3323 12.9398 11.4241 13.3939 10.6068 13.2122C8.79052 12.7582 6.33855 10.397 5.88448 8.48991C5.61204 7.67255 6.15692 6.76442 6.97424 6.49201C8.15482 6.12875 8.51808 4.58492 7.60994 3.67678L5.06716 1.134C4.34065 0.498303 3.25088 0.498303 2.61518 1.134L0.889723 2.85946C-0.835738 4.67573 1.07135 9.48886 5.3396 13.7571C9.60784 18.0254 14.421 20.0233 16.2372 18.207L17.9627 16.4815C18.5984 15.755 18.5984 14.6652 17.9627 14.0295Z" fill="white"/>
</svg>
