<svg width="16" height="12" viewBox="0 0 16 12" fill="none" xmlns="http://www.w3.org/2000/svg">
<path d="M10.4292 1.31005C10.3368 1.21756 10.2212 1.17132 10.0824 1.17132C9.94372 1.17132 9.8235 1.22219 9.72177 1.32392C9.62004 1.42564 9.56918 1.54587 9.56918 1.68459C9.56918 1.82331 9.61542 1.93891 9.7079 2.03139L13.3424 5.66586H1.35694C1.22747 5.66586 1.11187 5.7121 1.01014 5.80458C0.908414 5.89706 0.85755 6.01266 0.85755 6.15138C0.85755 6.2901 0.908414 6.41032 1.01014 6.51205C1.11187 6.61378 1.22747 6.66464 1.35694 6.66464H13.3424L9.7079 10.2991C9.61542 10.3916 9.56918 10.5072 9.56918 10.6459C9.56918 10.7846 9.62004 10.9049 9.72177 11.0066C9.8235 11.1083 9.94372 11.1592 10.0824 11.1592C10.2212 11.1592 10.3368 11.1129 10.4292 11.0205L14.9238 6.52592C15.0163 6.43344 15.0625 6.31322 15.0625 6.16525C15.0625 6.01728 15.0163 5.89706 14.9238 5.80458L10.4292 1.31005Z" fill="white" stroke="white" stroke-width="0.5"/>
</svg>
