<svg width="96" height="31" viewBox="0 0 96 31" fill="none" xmlns="http://www.w3.org/2000/svg">
<path fill-rule="evenodd" clip-rule="evenodd" d="M92.0269 0.959961H3.50244C1.72305 0.959961 0.264648 2.41836 0.264648 4.19961V27.4746C0.264648 29.254 1.72305 30.7124 3.50244 30.7124H92.0269C93.8063 30.7124 95.2646 29.254 95.2646 27.4746V4.19961C95.2646 2.41836 93.8063 0.959961 92.0269 0.959961Z" fill="black"/>
<path d="M40.4604 17.4564L42.8818 17.2802C42.9338 17.7348 43.0414 18.0836 43.2028 18.3192C43.4645 18.7052 43.8393 18.9 44.3272 18.9C44.6909 18.9 44.9711 18.8017 45.1678 18.6031C45.3645 18.4046 45.4628 18.1745 45.4628 17.9147C45.4628 17.6661 45.37 17.4435 45.1845 17.2468C44.9971 17.052 44.5647 16.8683 43.8819 16.692C42.7649 16.4025 41.9689 16.0147 41.4921 15.5305C41.0115 15.048 40.7722 14.4339 40.7722 13.6843C40.7722 13.1944 40.8946 12.7306 41.1414 12.2927C41.3863 11.8529 41.7556 11.5097 42.2491 11.261C42.7427 11.0105 43.4199 10.8862 44.2771 10.8862C45.3329 10.8862 46.1345 11.1126 46.6874 11.5709C47.2422 12.0255 47.5706 12.7491 47.6764 13.7437L45.2791 13.9088C45.216 13.4746 45.0806 13.1573 44.8765 12.9625C44.6724 12.764 44.3885 12.6656 44.0304 12.6656C43.7335 12.6656 43.509 12.738 43.3587 12.8846C43.2103 13.0293 43.1342 13.2074 43.1342 13.4171C43.1342 13.5674 43.1973 13.7047 43.3179 13.8271C43.4348 13.9533 43.7187 14.0702 44.1677 14.1797C45.2828 14.458 46.0788 14.7419 46.5594 15.0258C47.0418 15.3115 47.3925 15.6641 47.6114 16.0871C47.8304 16.5083 47.9398 16.9814 47.9398 17.5065C47.9398 18.1188 47.7951 18.6848 47.502 19.2043C47.2088 19.722 46.8024 20.1172 46.2755 20.3844C45.7504 20.6516 45.0898 20.7852 44.292 20.7852C42.8893 20.7852 41.917 20.4716 41.3771 19.8444C40.8371 19.2191 40.5328 18.4231 40.4604 17.4564ZM49.0735 11.0458H51.6211V14.3912H54.4099V11.0458H56.9686V20.6256H54.4099V16.7458H51.6211V20.6256H49.0735V11.0458ZM63.741 19.0466H60.852L60.4383 20.6256H57.8351L60.9411 11.0458H63.7317L66.8248 20.6256H64.1548L63.741 19.0466ZM63.2011 16.9722L62.3012 13.5303L61.3957 16.9722H63.2011ZM67.6672 20.6256V11.0458H71.9162C72.7029 11.0458 73.306 11.1256 73.7216 11.2833C74.1372 11.4392 74.4749 11.7305 74.7291 12.1554C74.9852 12.5803 75.1113 13.0998 75.1113 13.7103C75.1113 14.2409 75.0111 14.7011 74.8182 15.087C74.6233 15.4729 74.3543 15.7865 74.011 16.0277C73.7939 16.1799 73.4952 16.3061 73.1167 16.4062C73.4191 16.525 73.6399 16.6419 73.7791 16.7588C73.87 16.8367 74.0092 17.0056 74.1855 17.2635C74.3636 17.5177 74.4786 17.7199 74.5417 17.8591L75.7793 20.6256H72.8996L71.5377 17.7051C71.3614 17.3266 71.2111 17.0779 71.0757 16.9666C70.8938 16.8182 70.6823 16.7458 70.4504 16.7458H70.2259V20.6256H67.6672ZM70.2259 14.9404H71.3021C71.4171 14.9404 71.6435 14.8903 71.9793 14.8087C72.1463 14.766 72.2854 14.6695 72.3912 14.5063C72.4988 14.3448 72.5526 14.1593 72.5526 13.9496C72.5526 13.6397 72.4673 13.4004 72.3003 13.2353C72.1296 13.0701 71.8123 12.9866 71.3466 12.9866H70.2259V14.9404ZM76.5994 11.0458H83.422V13.0942H79.1581V14.6176H83.1103V16.5714H79.1581V18.4584H83.5481V20.6256H76.5994V11.0458Z" fill="white"/>
<path d="M31.6984 0.959961V30.7124H29.856V0.959961H31.6984Z" fill="#1A1A1A"/>
<path d="M19.0417 9.24072H21.1959L16.4886 14.6197L22.0253 21.9396H17.6909L14.2954 17.4994L10.4101 21.9396H8.254L13.2879 16.1857L7.97754 9.24072H12.4214L15.4903 13.2986L19.0417 9.24072ZM18.2847 20.65H19.4777L11.7738 10.4635H10.4936L18.2847 20.65Z" fill="white"/>
</svg>
